<svg width="23" height="20" viewBox="0 0 23 20" fill="none" xmlns="http://www.w3.org/2000/svg">
<path d="M6.6999 4.12023V5.12023C7.05557 5.12023 7.38447 4.93132 7.56368 4.62411L6.6999 4.12023ZM8.3799 1.24023V0.240234C8.02423 0.240234 7.69533 0.429146 7.51612 0.736363L8.3799 1.24023ZM14.6199 1.24023L15.4837 0.736364C15.3045 0.429146 14.9756 0.240234 14.6199 0.240234V1.24023ZM16.2999 4.12023L15.4361 4.62411C15.6153 4.93132 15.9442 5.12023 16.2999 5.12023V4.12023ZM1.8999 16.3602H2.8999V6.52023H1.8999H0.899902V16.3602H1.8999ZM4.2999 4.12023V5.12023H6.6999V4.12023V3.12023H4.2999V4.12023ZM6.6999 4.12023L7.56368 4.62411L9.24368 1.74411L8.3799 1.24023L7.51612 0.736363L5.83612 3.61636L6.6999 4.12023ZM8.3799 1.24023V2.24023H14.6199V1.24023V0.240234H8.3799V1.24023ZM14.6199 1.24023L13.7561 1.74411L15.4361 4.62411L16.2999 4.12023L17.1637 3.61636L15.4837 0.736364L14.6199 1.24023ZM16.2999 4.12023V5.12023H18.6999V4.12023V3.12023H16.2999V4.12023ZM21.0999 6.52023H20.0999V16.3602H21.0999H22.0999V6.52023H21.0999ZM21.0999 16.3602H20.0999C20.0999 17.1334 19.4731 17.7602 18.6999 17.7602V18.7602V19.7602C20.5777 19.7602 22.0999 18.238 22.0999 16.3602H21.0999ZM18.6999 4.12023V5.12023C19.4731 5.12023 20.0999 5.74704 20.0999 6.52023H21.0999H22.0999C22.0999 4.64247 20.5777 3.12023 18.6999 3.12023V4.12023ZM1.8999 6.52023H2.8999C2.8999 5.74703 3.5267 5.12023 4.2999 5.12023V4.12023V3.12023C2.42213 3.12023 0.899902 4.64246 0.899902 6.52023H1.8999ZM4.2999 18.7602V17.7602C3.5267 17.7602 2.8999 17.1334 2.8999 16.3602H1.8999H0.899902C0.899902 18.238 2.42213 19.7602 4.2999 19.7602V18.7602ZM15.0999 10.8402H14.0999C14.0999 12.2762 12.9358 13.4402 11.4999 13.4402V14.4402V15.4402C14.0404 15.4402 16.0999 13.3807 16.0999 10.8402H15.0999ZM11.4999 14.4402V13.4402C10.064 13.4402 8.8999 12.2762 8.8999 10.8402H7.8999H6.8999C6.8999 13.3807 8.95939 15.4402 11.4999 15.4402V14.4402ZM7.8999 10.8402H8.8999C8.8999 9.40429 10.064 8.24023 11.4999 8.24023V7.24023V6.24023C8.95939 6.24023 6.8999 8.29972 6.8999 10.8402H7.8999ZM11.4999 7.24023V8.24023C12.9358 8.24023 14.0999 9.40429 14.0999 10.8402H15.0999H16.0999C16.0999 8.29972 14.0404 6.24023 11.4999 6.24023V7.24023ZM18.6999 18.7602V17.7602H4.2999V18.7602V19.7602H18.6999V18.7602Z" fill="#1E429F"/>
</svg>
