<svg width="18" height="19" viewBox="0 0 18 19" fill="none" xmlns="http://www.w3.org/2000/svg">
<path d="M10.2977 3.13297L11.6177 5.77297C11.7977 6.14047 12.2777 6.49297 12.6827 6.56047L15.0752 6.95797C16.6052 7.21297 16.9652 8.32297 15.8627 9.41797L14.0027 11.278C13.6877 11.593 13.5152 12.2005 13.6127 12.6355L14.1452 14.938C14.5652 16.7605 13.5977 17.4655 11.9852 16.513L9.74268 15.1855C9.33768 14.9455 8.67018 14.9455 8.25768 15.1855L6.01518 16.513C4.41018 17.4655 3.43518 16.753 3.85518 14.938L4.38768 12.6355C4.48518 12.2005 4.31268 11.593 3.99768 11.278L2.13768 9.41797C1.04268 8.32297 1.39518 7.21297 2.92518 6.95797L5.31768 6.56047C5.71518 6.49297 6.19518 6.14047 6.37518 5.77297L7.69518 3.13297C8.41518 1.70047 9.58518 1.70047 10.2977 3.13297Z" fill="#FCBA42" stroke="#FCBA42" stroke-width="1.125" stroke-linecap="round" stroke-linejoin="round"/>
</svg>
