<svg width="24" height="18" viewBox="0 0 24 18" fill="none" xmlns="http://www.w3.org/2000/svg">
<path d="M23.0515 11.8849C23.0422 11.836 23.0407 11.7844 23.0218 11.7398C23.0217 11.7397 23.0218 11.7398 23.0218 11.7398L18.7948 1.77497C18.7904 1.76438 18.7812 1.7579 18.7763 1.74764C18.7578 1.70922 18.732 1.67795 18.7071 1.64403C18.6864 1.61553 18.6723 1.58352 18.6472 1.55828C18.6368 1.54775 18.6249 1.54031 18.6138 1.53056C18.5844 1.50448 18.5499 1.4878 18.5165 1.46701C18.4988 1.45603 18.4828 1.44228 18.4642 1.43293C18.4507 1.42617 18.442 1.41405 18.428 1.40808C18.4271 1.40769 18.4262 1.40786 18.4253 1.40752C18.413 1.40233 18.3999 1.40115 18.3873 1.39664C18.3521 1.38414 18.3147 1.382 18.2774 1.37529C18.2259 1.36605 18.176 1.35625 18.1229 1.35907C18.1121 1.35957 18.1025 1.35478 18.0917 1.3558L13.6587 1.77948C13.3604 1.16018 12.732 0.728394 11.9998 0.728394C11.1437 0.728394 10.4287 1.31692 10.2207 2.10833L5.77622 2.53308C5.74337 2.53629 5.71667 2.55319 5.68545 2.56069C5.6494 2.56925 5.6121 2.57072 5.57796 2.58486C5.57441 2.58632 5.57063 2.58565 5.56708 2.58717C5.55762 2.59128 5.55193 2.59968 5.54269 2.60418C5.50494 2.62255 5.47429 2.64813 5.44088 2.67258C5.41164 2.69376 5.38003 2.70948 5.35429 2.73529C5.34448 2.74515 5.3366 2.75568 5.32741 2.76605C5.29902 2.79805 5.28099 2.83568 5.2589 2.87242C5.24285 2.89895 5.21918 2.9185 5.20651 2.94774L0.979642 12.7104C0.979248 12.7113 0.979417 12.7123 0.979023 12.7133C0.963755 12.7489 0.963642 12.7904 0.954515 12.8287C0.942345 12.8804 0.923415 12.9315 0.923302 12.9832C0.923302 12.984 0.922852 12.9846 0.922852 12.9853C0.922852 15.6995 3.12958 17.9081 5.84202 17.9081C8.55491 17.9081 10.7616 15.6995 10.7616 12.9853C10.7616 12.9846 10.7612 12.984 10.7612 12.9832C10.7611 12.9315 10.7422 12.8804 10.73 12.8287C10.7209 12.7904 10.7207 12.7489 10.7055 12.7133C10.7051 12.7123 10.7052 12.7113 10.7049 12.7104L6.85598 3.82169L10.4024 3.48275C10.7205 4.03984 11.3134 4.4207 11.9998 4.4207C12.8108 4.4207 13.4934 3.89167 13.7407 3.16341L17.066 2.8456L13.2929 11.7395C13.2928 11.7396 13.2929 11.7395 13.2929 11.7395C13.274 11.7841 13.2724 11.836 13.2631 11.8849C13.2554 11.9267 13.238 11.9681 13.238 12.0098C13.238 12.0097 13.238 12.0098 13.238 12.0098C13.238 14.724 15.4446 16.9318 18.1575 16.9318C20.87 16.9318 23.0767 14.7242 23.0767 12.0099C23.0767 12.0099 23.0767 12.01 23.0767 12.0099C23.0767 11.9683 23.0592 11.9267 23.0515 11.8849ZM21.3387 11.3176H14.9759L18.1575 3.8182L21.3387 11.3176ZM5.84208 4.9654L9.01499 12.293H2.66945L5.84208 4.9654ZM5.84202 16.5235C4.12996 16.5235 2.70016 15.2978 2.37744 13.6776H9.30705C8.98434 15.2978 7.55448 16.5235 5.84202 16.5235ZM11.9998 3.03609C11.7451 3.03609 11.5382 2.82875 11.5382 2.57455C11.5382 2.32034 11.7451 2.11301 11.9998 2.11301C12.2544 2.11301 12.4613 2.32034 12.4613 2.57455C12.4613 2.82875 12.2544 3.03609 11.9998 3.03609ZM18.1575 15.5472C16.4451 15.5472 15.0152 14.3223 14.6925 12.7023H21.6221C21.2994 14.3223 19.8696 15.5472 18.1575 15.5472Z" fill="#4B5563"/>
</svg>
