<svg width="45" height="44" viewBox="0 0 45 44" fill="none" xmlns="http://www.w3.org/2000/svg">
<circle cx="22.5" cy="22" r="22" fill="url(#paint0_linear_34_4576)"/>
<path d="M33.5515 24.8849C33.5422 24.836 33.5407 24.7844 33.5218 24.7398C33.5217 24.7397 33.5218 24.7398 33.5218 24.7398L29.2948 14.775C29.2904 14.7644 29.2812 14.7579 29.2763 14.7476C29.2578 14.7092 29.232 14.678 29.2071 14.644C29.1864 14.6155 29.1723 14.5835 29.1472 14.5583C29.1368 14.5477 29.1249 14.5403 29.1138 14.5306C29.0844 14.5045 29.0499 14.4878 29.0165 14.467C28.9988 14.456 28.9828 14.4423 28.9642 14.4329C28.9507 14.4262 28.942 14.4141 28.928 14.4081C28.9271 14.4077 28.9262 14.4079 28.9253 14.4075C28.913 14.4023 28.8999 14.4012 28.8873 14.3966C28.8521 14.3841 28.8147 14.382 28.7774 14.3753C28.7259 14.3661 28.676 14.3562 28.6229 14.3591C28.6121 14.3596 28.6025 14.3548 28.5917 14.3558L24.1587 14.7795C23.8604 14.1602 23.232 13.7284 22.4998 13.7284C21.6437 13.7284 20.9287 14.3169 20.7207 15.1083L16.2762 15.5331C16.2434 15.5363 16.2167 15.5532 16.1855 15.5607C16.1494 15.5693 16.1121 15.5707 16.078 15.5849C16.0744 15.5863 16.0706 15.5856 16.0671 15.5872C16.0576 15.5913 16.0519 15.5997 16.0427 15.6042C16.0049 15.6225 15.9743 15.6481 15.9409 15.6726C15.9116 15.6938 15.88 15.7095 15.8543 15.7353C15.8445 15.7451 15.8366 15.7557 15.8274 15.766C15.799 15.798 15.781 15.8357 15.7589 15.8724C15.7428 15.899 15.7192 15.9185 15.7065 15.9477L11.4796 25.7104C11.4792 25.7113 11.4794 25.7123 11.479 25.7133C11.4638 25.7489 11.4636 25.7904 11.4545 25.8287C11.4423 25.8804 11.4234 25.9315 11.4233 25.9832C11.4233 25.984 11.4229 25.9846 11.4229 25.9853C11.4229 28.6995 13.6296 30.9081 16.342 30.9081C19.0549 30.9081 21.2616 28.6995 21.2616 25.9853C21.2616 25.9846 21.2612 25.984 21.2612 25.9832C21.2611 25.9315 21.2422 25.8804 21.23 25.8287C21.2209 25.7904 21.2207 25.7489 21.2055 25.7133C21.2051 25.7123 21.2052 25.7113 21.2049 25.7104L17.356 16.8217L20.9024 16.4828C21.2205 17.0398 21.8134 17.4207 22.4998 17.4207C23.3108 17.4207 23.9934 16.8917 24.2407 16.1634L27.566 15.8456L23.7929 24.7395C23.7928 24.7396 23.7929 24.7395 23.7929 24.7395C23.774 24.7841 23.7724 24.836 23.7631 24.8849C23.7554 24.9267 23.738 24.9681 23.738 25.0098C23.738 25.0097 23.738 25.0098 23.738 25.0098C23.738 27.724 25.9446 29.9318 28.6575 29.9318C31.37 29.9318 33.5767 27.7242 33.5767 25.0099C33.5767 25.0099 33.5767 25.01 33.5767 25.0099C33.5767 24.9683 33.5592 24.9267 33.5515 24.8849ZM31.8387 24.3176H25.4759L28.6575 16.8182L31.8387 24.3176ZM16.3421 17.9654L19.515 25.293H13.1695L16.3421 17.9654ZM16.342 29.5235C14.63 29.5235 13.2002 28.2978 12.8774 26.6776H19.8071C19.4843 28.2978 18.0545 29.5235 16.342 29.5235ZM22.4998 16.0361C22.2451 16.0361 22.0382 15.8288 22.0382 15.5745C22.0382 15.3203 22.2451 15.113 22.4998 15.113C22.7544 15.113 22.9613 15.3203 22.9613 15.5745C22.9613 15.8288 22.7544 16.0361 22.4998 16.0361ZM28.6575 28.5472C26.9451 28.5472 25.5152 27.3223 25.1925 25.7023H32.1221C31.7994 27.3223 30.3696 28.5472 28.6575 28.5472Z" fill="white"/>
<defs>
<linearGradient id="paint0_linear_34_4576" x1="0.5" y1="44" x2="44.5" y2="0" gradientUnits="userSpaceOnUse">
<stop stop-color="#A4CAFE"/>
<stop offset="1" stop-color="#3F83F8"/>
</linearGradient>
</defs>
</svg>
