<svg width="40" height="39" viewBox="0 0 40 39" fill="none" xmlns="http://www.w3.org/2000/svg">
<mask id="path-1-inside-1_982_3600" fill="white">
<path d="M39.5827 37.9334H30.9282C29.4684 34.9902 28.178 32.0196 27.0598 29.0605H27.7228V28.2272H26.7464C25.9952 26.1802 25.3294 24.1419 24.7524 22.1243H26.0299V21.2909H24.52C23.749 18.4836 23.1545 15.7238 22.7426 13.0445H23.7132V12.2111H22.6165C22.5721 11.8944 22.5336 11.5806 22.4945 11.2663H23.7132V10.433H22.3946C22.3597 10.1163 22.3289 9.80202 22.2995 9.48815H23.7132V8.65481H22.227C22.1695 7.9256 22.1233 7.20265 22.0966 6.49077C22.3041 6.17615 22.4268 5.80077 22.4268 5.39652C22.4268 4.43952 21.7489 3.63915 20.8484 3.44681V0.179688H20.0151V3.44685C19.1148 3.63923 18.4369 4.43956 18.4369 5.39656C18.4369 5.80148 18.5598 6.17756 18.7681 6.49252C18.7414 7.20386 18.6953 7.92623 18.6379 8.65481H17.1506V9.48815H18.5653C18.5359 9.80198 18.5052 10.1163 18.4702 10.433H17.1506V11.2663H18.3704C18.3312 11.5806 18.2928 11.8944 18.2484 12.2111H17.1506V13.0445H18.1224C17.7104 15.724 17.1158 18.4838 16.3445 21.2909H14.8337V22.1243H16.1121C15.5348 24.1419 14.8687 26.1803 14.1171 28.2272H13.141V29.0605H13.8035C12.6846 32.0198 11.3933 34.9904 9.93243 37.9334H0.416016V38.7667C8.65102 38.7667 31.766 38.7667 39.5827 38.7667V37.9334ZM25.8608 28.2271H24.0363L22.4678 22.1242H23.8874C24.4582 24.1419 25.1173 26.1802 25.8608 28.2271ZM21.6074 22.1243L23.1758 28.2272H17.6877L19.2561 22.1243H21.6074ZM19.4702 21.2909L20.4317 17.5495L21.3932 21.2909H19.4702ZM20.4317 4.23485C21.0724 4.23485 21.5934 4.7559 21.5934 5.39656C21.5934 6.03702 21.0724 6.55806 20.4317 6.55806C19.7912 6.55806 19.2702 6.03702 19.2702 5.39656C19.2702 4.7559 19.7912 4.23485 20.4317 4.23485ZM19.5662 7.18552C19.8291 7.31335 20.1203 7.3914 20.4317 7.3914C20.7436 7.3914 21.0352 7.3131 21.2984 7.18494C21.3229 7.67148 21.3524 8.1606 21.3908 8.65481H19.4739C19.5123 8.16081 19.5417 7.67185 19.5662 7.18552ZM19.4023 9.48815H21.4625C21.4916 9.80202 21.5219 10.1163 21.5564 10.433H19.3085C19.3429 10.1163 19.3732 9.80198 19.4023 9.48815ZM19.2099 11.2663H21.6548C21.6934 11.5806 21.7316 11.8944 21.7755 12.2111H19.0893C19.1332 11.8944 19.1713 11.5806 19.2099 11.2663ZM18.9651 13.0445H21.8998C22.3067 15.7248 22.8936 18.4843 23.6561 21.2909H22.2536L20.4317 14.2015L18.6098 21.2909H17.2084C17.9711 18.4845 18.5581 15.7249 18.9651 13.0445ZM16.9771 22.1243H18.3956L16.8273 28.2272H15.0027C15.7465 26.1803 16.406 24.142 16.9771 22.1243ZM25.979 37.9334L25.1827 34.4332C24.6747 32.2001 22.7203 30.6405 20.4301 30.6405C18.14 30.6405 16.1857 32.2002 15.6776 34.4332L14.8813 37.9334H10.8644C12.3107 34.9898 13.5867 32.0191 14.6939 29.0605C18.0931 29.0605 22.7791 29.0605 26.1693 29.0605C27.2759 32.0189 28.551 34.9896 29.9961 37.9334H25.979ZM15.7363 37.9318L16.4903 34.618C16.9114 32.7668 18.5315 31.4739 20.4301 31.4739C22.3287 31.4739 23.949 32.7668 24.3701 34.618L25.1241 37.9318H15.7363Z"/>
</mask>
<path d="M39.5827 37.9334H30.9282C29.4684 34.9902 28.178 32.0196 27.0598 29.0605H27.7228V28.2272H26.7464C25.9952 26.1802 25.3294 24.1419 24.7524 22.1243H26.0299V21.2909H24.52C23.749 18.4836 23.1545 15.7238 22.7426 13.0445H23.7132V12.2111H22.6165C22.5721 11.8944 22.5336 11.5806 22.4945 11.2663H23.7132V10.433H22.3946C22.3597 10.1163 22.3289 9.80202 22.2995 9.48815H23.7132V8.65481H22.227C22.1695 7.9256 22.1233 7.20265 22.0966 6.49077C22.3041 6.17615 22.4268 5.80077 22.4268 5.39652C22.4268 4.43952 21.7489 3.63915 20.8484 3.44681V0.179688H20.0151V3.44685C19.1148 3.63923 18.4369 4.43956 18.4369 5.39656C18.4369 5.80148 18.5598 6.17756 18.7681 6.49252C18.7414 7.20386 18.6953 7.92623 18.6379 8.65481H17.1506V9.48815H18.5653C18.5359 9.80198 18.5052 10.1163 18.4702 10.433H17.1506V11.2663H18.3704C18.3312 11.5806 18.2928 11.8944 18.2484 12.2111H17.1506V13.0445H18.1224C17.7104 15.724 17.1158 18.4838 16.3445 21.2909H14.8337V22.1243H16.1121C15.5348 24.1419 14.8687 26.1803 14.1171 28.2272H13.141V29.0605H13.8035C12.6846 32.0198 11.3933 34.9904 9.93243 37.9334H0.416016V38.7667C8.65102 38.7667 31.766 38.7667 39.5827 38.7667V37.9334ZM25.8608 28.2271H24.0363L22.4678 22.1242H23.8874C24.4582 24.1419 25.1173 26.1802 25.8608 28.2271ZM21.6074 22.1243L23.1758 28.2272H17.6877L19.2561 22.1243H21.6074ZM19.4702 21.2909L20.4317 17.5495L21.3932 21.2909H19.4702ZM20.4317 4.23485C21.0724 4.23485 21.5934 4.7559 21.5934 5.39656C21.5934 6.03702 21.0724 6.55806 20.4317 6.55806C19.7912 6.55806 19.2702 6.03702 19.2702 5.39656C19.2702 4.7559 19.7912 4.23485 20.4317 4.23485ZM19.5662 7.18552C19.8291 7.31335 20.1203 7.3914 20.4317 7.3914C20.7436 7.3914 21.0352 7.3131 21.2984 7.18494C21.3229 7.67148 21.3524 8.1606 21.3908 8.65481H19.4739C19.5123 8.16081 19.5417 7.67185 19.5662 7.18552ZM19.4023 9.48815H21.4625C21.4916 9.80202 21.5219 10.1163 21.5564 10.433H19.3085C19.3429 10.1163 19.3732 9.80198 19.4023 9.48815ZM19.2099 11.2663H21.6548C21.6934 11.5806 21.7316 11.8944 21.7755 12.2111H19.0893C19.1332 11.8944 19.1713 11.5806 19.2099 11.2663ZM18.9651 13.0445H21.8998C22.3067 15.7248 22.8936 18.4843 23.6561 21.2909H22.2536L20.4317 14.2015L18.6098 21.2909H17.2084C17.9711 18.4845 18.5581 15.7249 18.9651 13.0445ZM16.9771 22.1243H18.3956L16.8273 28.2272H15.0027C15.7465 26.1803 16.406 24.142 16.9771 22.1243ZM25.979 37.9334L25.1827 34.4332C24.6747 32.2001 22.7203 30.6405 20.4301 30.6405C18.14 30.6405 16.1857 32.2002 15.6776 34.4332L14.8813 37.9334H10.8644C12.3107 34.9898 13.5867 32.0191 14.6939 29.0605C18.0931 29.0605 22.7791 29.0605 26.1693 29.0605C27.2759 32.0189 28.551 34.9896 29.9961 37.9334H25.979ZM15.7363 37.9318L16.4903 34.618C16.9114 32.7668 18.5315 31.4739 20.4301 31.4739C22.3287 31.4739 23.949 32.7668 24.3701 34.618L25.1241 37.9318H15.7363Z" fill="#6B7280" stroke="#6B7280" stroke-width="0.833333" mask="url(#path-1-inside-1_982_3600)"/>
</svg>
