<svg width="18" height="18" viewBox="0 0 18 18" fill="none" xmlns="http://www.w3.org/2000/svg">
<path d="M10.9109 1.5H7.08594C5.73594 1.5 5.43594 2.17501 5.26344 3.00751L4.64844 5.94749H13.3484L12.7334 3.00751C12.5609 2.17501 12.2609 1.5 10.9109 1.5Z" stroke="#6B7280" stroke-width="1.125" stroke-linecap="round" stroke-linejoin="round"/>
<path d="M14.4289 10.74C14.4889 11.3775 13.9789 11.925 13.3264 11.925H12.3064C11.7214 11.925 11.6389 11.6775 11.5339 11.3625L11.4214 11.0399C11.2714 10.5974 11.1739 10.2974 10.3864 10.2974H7.60394C6.82394 10.2974 6.70394 10.6349 6.56894 11.0399L6.45644 11.3625C6.35144 11.67 6.26894 11.925 5.68394 11.925H4.66394C4.01144 11.925 3.50144 11.3775 3.56144 10.74L3.86894 7.42497C3.94394 6.60747 4.10144 5.93994 5.52644 5.93994H12.4639C13.8889 5.93994 14.0464 6.60747 14.1214 7.42497L14.4289 10.74Z" stroke="#6B7280" stroke-width="1.125" stroke-linecap="round" stroke-linejoin="round"/>
<path d="M4.64906 4.3125H4.10156" stroke="#6B7280" stroke-width="1.125" stroke-linecap="round" stroke-linejoin="round"/>
<path d="M13.8961 4.3125H13.3486" stroke="#6B7280" stroke-width="1.125" stroke-linecap="round" stroke-linejoin="round"/>
<path d="M5.7373 8.12256H7.36481" stroke="#6B7280" stroke-width="1.125" stroke-linecap="round" stroke-linejoin="round"/>
<path d="M10.6338 8.12256H12.2613" stroke="#6B7280" stroke-width="1.125" stroke-linecap="round" stroke-linejoin="round"/>
<path d="M9 12.75V13.5" stroke="#6B7280" stroke-width="1.125" stroke-linecap="round" stroke-linejoin="round"/>
<path d="M9 15.75V16.5" stroke="#6B7280" stroke-width="1.125" stroke-linecap="round" stroke-linejoin="round"/>
<path d="M2.25 13.5L1.5 16.5" stroke="#6B7280" stroke-width="1.125" stroke-linecap="round" stroke-linejoin="round"/>
<path d="M15.75 13.5L16.5 16.5" stroke="#6B7280" stroke-width="1.125" stroke-linecap="round" stroke-linejoin="round"/>
</svg>
