<svg width="24" height="24" viewBox="0 0 24 24" fill="none" xmlns="http://www.w3.org/2000/svg">
<path d="M13.7294 3.50989L15.4894 7.02989C15.7294 7.51989 16.3694 7.98989 16.9094 8.07989L20.0994 8.60989C22.1394 8.94989 22.6194 10.4299 21.1494 11.8899L18.6694 14.3699C18.2494 14.7899 18.0194 15.5999 18.1494 16.1799L18.8594 19.2499C19.4194 21.6799 18.1294 22.6199 15.9794 21.3499L12.9894 19.5799C12.4494 19.2599 11.5594 19.2599 11.0094 19.5799L8.01942 21.3499C5.87942 22.6199 4.57942 21.6699 5.13942 19.2499L5.84942 16.1799C5.97942 15.5999 5.74942 14.7899 5.32942 14.3699L2.84942 11.8899C1.38942 10.4299 1.85942 8.94989 3.89942 8.60989L7.08942 8.07989C7.61942 7.98989 8.25942 7.51989 8.49942 7.02989L10.2594 3.50989C11.2194 1.59989 12.7794 1.59989 13.7294 3.50989Z" stroke="#4B5563" stroke-width="1.25" stroke-linecap="round" stroke-linejoin="round"/>
</svg>
