<svg width="18" height="18" viewBox="0 0 18 18" fill="none" xmlns="http://www.w3.org/2000/svg">
<path fill-rule="evenodd" clip-rule="evenodd" d="M3 5.25H12C12.4142 5.25 12.75 5.58579 12.75 6V9.375C12.75 10.4105 11.9105 11.25 10.875 11.25H10.5C9.67157 11.25 9 10.5784 9 9.75C9 8.92157 8.32843 8.25 7.5 8.25C6.67157 8.25 6 8.92157 6 9.75C6 10.5784 5.32843 11.25 4.5 11.25H4.125C3.08947 11.25 2.25 10.4105 2.25 9.375V6C2.25 5.58579 2.58579 5.25 3 5.25Z" stroke="#6B7280" stroke-width="1.125" stroke-linecap="round" stroke-linejoin="round"/>
<path d="M7.5 12.75C7.5 13.5784 8.17157 14.25 9 14.25H11.625C13.9032 14.25 15.75 12.4032 15.75 10.125V3" stroke="#6B7280" stroke-width="1.125" stroke-linecap="round" stroke-linejoin="round"/>
</svg>
